<svg xmlns="http://www.w3.org/2000/svg" xmlns:xlink="http://www.w3.org/1999/xlink" width="500" zoomAndPan="magnify" viewBox="0 0 375 374.999991" height="500" preserveAspectRatio="xMidYMid meet" version="1.0"><defs><clipPath id="6e8d8972d6"><path d="M 0 91.109375 L 375 91.109375 L 375 283.859375 L 0 283.859375 Z M 0 91.109375 " clip-rule="nonzero"/></clipPath></defs><g clip-path="url(#6e8d8972d6)"><path fill="#603911" d="M 197.445312 91.109375 L 182.183594 100.859375 L 171.554688 122.410156 C 166.8125 122.882812 162.101562 123.566406 157.421875 124.46875 L 149.605469 104.808594 L 152.949219 98.875 L 151.5 94.714844 L 136.519531 108.214844 L 131.644531 131.734375 C 127.066406 133.488281 122.578125 135.449219 118.179688 137.625 L 105.539062 120.675781 L 107.191406 114.089844 L 104.691406 110.464844 L 93.792969 127.375 L 95.207031 151.5625 C 91.308594 154.394531 87.546875 157.394531 83.925781 160.566406 L 67.085938 147.496094 L 66.949219 140.722656 L 63.574219 137.894531 L 57.472656 157.042969 L 65.238281 179.890625 C 62.242188 183.566406 59.414062 187.375 56.757812 191.304688 L 37.277344 182.90625 L 35.433594 176.34375 L 31.472656 174.429688 L 30.453125 194.582031 L 43.800781 214.878906 C 41.84375 219.304688 40.09375 223.8125 38.554688 228.398438 L 17.417969 225.328125 L 13.921875 219.5 L 9.589844 218.703125 L 13.871094 238.375 L 32.160156 254.625 C 31.421875 259.328125 30.898438 264.058594 30.589844 268.8125 L 9.28125 271.496094 L 4.386719 266.800781 L 0 267.191406 L 9.261719 285.066406 L 31.195312 295.832031 C 31.691406 300.480469 32.390625 305.097656 33.296875 309.683594 L 13.328125 317.730469 L 7.378906 314.402344 L 3.226562 315.867188 L 16.796875 330.839844 L 40.710938 335.644531 C 42.460938 340.117188 44.414062 344.503906 46.570312 348.796875 L 29.425781 361.785156 L 22.835938 360.179688 L 19.230469 362.707031 L 36.179688 373.476562 L 60.769531 371.894531 C 63.550781 375.675781 66.492188 379.324219 69.601562 382.839844 L 56.351562 399.976562 L 49.585938 400.152344 L 46.765625 403.53125 L 65.886719 409.5 L 89.199219 401.597656 C 92.859375 404.546875 96.640625 407.328125 100.546875 409.9375 L 92.222656 429.886719 L 85.734375 431.804688 L 83.890625 435.804688 L 103.917969 436.628906 L 124.339844 422.925781 C 128.65625 424.800781 133.046875 426.476562 137.515625 427.957031 L 134.765625 449.503906 L 129.003906 453.054688 L 128.285156 457.398438 L 147.875 452.964844 L 163.929688 434.277344 C 168.535156 434.980469 173.164062 435.476562 177.816406 435.765625 L 180.511719 457.28125 L 175.792969 462.195312 L 176.175781 466.582031 L 194.097656 457.253906 L 204.949219 435.089844 C 209.546875 434.585938 214.113281 433.882812 218.652344 432.972656 L 226.75 453.070312 L 223.425781 459.035156 L 225.75 463.011719 L 239.84375 449.554688 L 244.648438 425.503906 C 249.101562 423.75 253.464844 421.796875 257.738281 419.644531 L 270.746094 436.808594 L 269.144531 443.410156 L 271.671875 447.015625 L 282.410156 430.011719 L 280.703125 405.464844 C 284.515625 402.652344 288.195312 399.671875 291.742188 396.527344 L 308.835938 409.738281 L 309.019531 416.515625 L 312.402344 419.335938 L 318.324219 400.171875 L 310.347656 377.023438 C 313.332031 373.308594 316.148438 369.460938 318.785156 365.492188 L 338.609375 373.757812 L 340.542969 380.253906 L 344.542969 382.097656 L 345.3125 362.035156 L 331.691406 341.785156 C 333.582031 337.410156 335.273438 332.957031 336.761719 328.429688 L 358.070312 331.140625 L 361.632812 336.90625 L 365.976562 337.625 L 361.484375 318.019531 L 342.976562 302.15625 C 343.675781 297.515625 344.164062 292.847656 344.445312 288.160156 L 365.683594 285.371094 L 370.613281 290.089844 L 375 289.707031 L 365.605469 271.78125 L 343.714844 261.097656 C 343.191406 256.40625 342.453125 251.75 341.511719 247.128906 L 361.308594 239.144531 L 367.132812 241.714844 L 371.25 240.148438 L 357.550781 225.460938 L 333.910156 221.113281 C 332.164062 216.6875 330.222656 212.347656 328.082031 208.097656 L 344.878906 195.210938 L 351.496094 196.804688 L 355.101562 194.277344 L 338.042969 183.570312 L 313.875 185.28125 C 311.007812 181.421875 307.972656 177.699219 304.765625 174.117188 L 317.667969 157.222656 L 324.457031 157.027344 L 327.277344 153.644531 L 308.066406 147.765625 L 285.25 155.664062 C 281.445312 152.632812 277.507812 149.78125 273.4375 147.117188 L 281.578125 127.578125 L 288.085938 125.632812 L 289.929688 121.636719 L 269.835938 120.917969 L 249.984375 134.425781 C 245.476562 132.488281 240.890625 130.769531 236.222656 129.261719 L 238.890625 108.277344 L 244.660156 104.699219 L 245.382812 100.355469 L 225.757812 104.914062 L 210.078125 123.25 C 206.238281 122.683594 202.386719 122.257812 198.515625 121.976562 L 194.46875 100.644531 L 198.15625 95.453125 L 197.445312 91.105469 Z M 187.5 133.320312 C 189.882812 133.320312 192.265625 133.378906 194.640625 133.496094 C 197.019531 133.613281 199.394531 133.785156 201.765625 134.019531 C 204.136719 134.253906 206.5 134.546875 208.855469 134.894531 C 211.210938 135.242188 213.554688 135.652344 215.890625 136.117188 C 218.226562 136.582031 220.550781 137.101562 222.859375 137.679688 C 225.171875 138.257812 227.464844 138.894531 229.746094 139.585938 C 232.023438 140.277344 234.285156 141.023438 236.527344 141.824219 C 238.769531 142.628906 240.992188 143.484375 243.191406 144.398438 C 245.390625 145.308594 247.566406 146.273438 249.722656 147.292969 C 251.875 148.308594 254 149.378906 256.101562 150.503906 C 258.203125 151.625 260.273438 152.796875 262.316406 154.023438 C 264.359375 155.246094 266.371094 156.519531 268.351562 157.84375 C 270.332031 159.167969 272.277344 160.539062 274.191406 161.957031 C 276.101562 163.375 277.980469 164.839844 279.820312 166.351562 C 281.660156 167.863281 283.464844 169.417969 285.230469 171.015625 C 286.992188 172.617188 288.71875 174.257812 290.402344 175.941406 C 292.085938 177.625 293.726562 179.351562 295.328125 181.113281 C 296.925781 182.878906 298.480469 184.683594 299.992188 186.523438 C 301.503906 188.363281 302.96875 190.242188 304.386719 192.15625 C 305.804688 194.066406 307.175781 196.015625 308.5 197.992188 C 309.824219 199.972656 311.097656 201.984375 312.320312 204.027344 C 313.546875 206.070312 314.71875 208.144531 315.839844 210.242188 C 316.964844 212.34375 318.035156 214.46875 319.054688 216.625 C 320.070312 218.777344 321.035156 220.953125 321.949219 223.152344 C 322.859375 225.351562 323.714844 227.574219 324.519531 229.816406 C 325.320312 232.058594 326.066406 234.320312 326.757812 236.597656 C 327.449219 238.878906 328.085938 241.171875 328.664062 243.484375 C 329.242188 245.792969 329.765625 248.117188 330.230469 250.453125 C 330.691406 252.789062 331.101562 255.132812 331.449219 257.488281 C 331.800781 259.84375 332.089844 262.207031 332.324219 264.578125 C 332.558594 266.949219 332.734375 269.324219 332.847656 271.703125 C 332.964844 274.082031 333.023438 276.460938 333.023438 278.84375 C 333.023438 281.222656 332.964844 283.605469 332.847656 285.984375 C 332.734375 288.363281 332.558594 290.734375 332.324219 293.105469 C 332.089844 295.476562 331.800781 297.839844 331.449219 300.195312 C 331.101562 302.550781 330.691406 304.898438 330.230469 307.230469 C 329.765625 309.566406 329.242188 311.890625 328.664062 314.203125 C 328.085938 316.511719 327.449219 318.804688 326.757812 321.085938 C 326.066406 323.363281 325.320312 325.625 324.519531 327.867188 C 323.714844 330.109375 322.859375 332.332031 321.949219 334.53125 C 321.035156 336.730469 320.070312 338.910156 319.054688 341.0625 C 318.035156 343.214844 316.964844 345.339844 315.839844 347.441406 C 314.71875 349.542969 313.546875 351.613281 312.320312 353.65625 C 311.097656 355.699219 309.824219 357.710938 308.5 359.691406 C 307.175781 361.671875 305.804688 363.617188 304.386719 365.53125 C 302.96875 367.441406 301.503906 369.320312 299.992188 371.160156 C 298.480469 373.003906 296.925781 374.804688 295.328125 376.570312 C 293.726562 378.335938 292.085938 380.058594 290.402344 381.742188 C 288.71875 383.425781 286.992188 385.066406 285.230469 386.667969 C 283.464844 388.265625 281.660156 389.820312 279.820312 391.332031 C 277.980469 392.84375 276.101562 394.308594 274.191406 395.726562 C 272.277344 397.144531 270.332031 398.515625 268.351562 399.839844 C 266.371094 401.164062 264.359375 402.4375 262.316406 403.660156 C 260.273438 404.886719 258.203125 406.058594 256.101562 407.183594 C 254 408.304688 251.875 409.375 249.722656 410.394531 C 247.566406 411.410156 245.390625 412.375 243.191406 413.289062 C 240.992188 414.199219 238.769531 415.054688 236.527344 415.859375 C 234.285156 416.660156 232.023438 417.40625 229.746094 418.097656 C 227.464844 418.789062 225.171875 419.425781 222.859375 420.003906 C 220.550781 420.582031 218.226562 421.105469 215.890625 421.570312 C 213.554688 422.035156 211.210938 422.441406 208.855469 422.789062 C 206.5 423.140625 204.136719 423.429688 201.765625 423.664062 C 199.394531 423.898438 197.019531 424.074219 194.640625 424.191406 C 192.265625 424.308594 189.882812 424.363281 187.5 424.363281 C 185.121094 424.363281 182.738281 424.308594 180.363281 424.191406 C 177.984375 424.074219 175.609375 423.898438 173.238281 423.664062 C 170.867188 423.429688 168.503906 423.140625 166.148438 422.789062 C 163.792969 422.441406 161.449219 422.035156 159.113281 421.570312 C 156.777344 421.105469 154.453125 420.582031 152.144531 420.003906 C 149.832031 419.425781 147.539062 418.789062 145.257812 418.097656 C 142.980469 417.40625 140.71875 416.660156 138.476562 415.859375 C 136.234375 415.054688 134.011719 414.199219 131.8125 413.289062 C 129.613281 412.375 127.4375 411.410156 125.28125 410.394531 C 123.128906 409.375 121.003906 408.304688 118.902344 407.183594 C 116.800781 406.058594 114.730469 404.886719 112.6875 403.660156 C 110.644531 402.4375 108.632812 401.164062 106.652344 399.839844 C 104.671875 398.515625 102.726562 397.144531 100.8125 395.726562 C 98.902344 394.308594 97.023438 392.84375 95.183594 391.332031 C 93.34375 389.820312 91.539062 388.265625 89.773438 386.667969 C 88.011719 385.066406 86.285156 383.425781 84.601562 381.742188 C 82.917969 380.058594 81.277344 378.335938 79.675781 376.570312 C 78.078125 374.804688 76.523438 373.003906 75.011719 371.160156 C 73.5 369.320312 72.035156 367.441406 70.617188 365.53125 C 69.199219 363.617188 67.828125 361.671875 66.503906 359.691406 C 65.179688 357.710938 63.90625 355.699219 62.683594 353.65625 C 61.457031 351.613281 60.285156 349.542969 59.164062 347.441406 C 58.039062 345.339844 56.96875 343.214844 55.949219 341.0625 C 54.933594 338.910156 53.96875 336.730469 53.054688 334.53125 C 52.144531 332.332031 51.289062 330.109375 50.484375 327.867188 C 49.683594 325.625 48.9375 323.363281 48.246094 321.085938 C 47.554688 318.804688 46.917969 316.511719 46.339844 314.203125 C 45.761719 311.890625 45.238281 309.566406 44.773438 307.230469 C 44.308594 304.898438 43.902344 302.550781 43.554688 300.195312 C 43.203125 297.839844 42.914062 295.476562 42.679688 293.105469 C 42.445312 290.734375 42.269531 288.363281 42.152344 285.984375 C 42.039062 283.605469 41.980469 281.222656 41.980469 278.84375 C 41.980469 276.460938 42.039062 274.082031 42.152344 271.703125 C 42.269531 269.324219 42.445312 266.949219 42.679688 264.578125 C 42.914062 262.207031 43.203125 259.84375 43.554688 257.488281 C 43.902344 255.132812 44.308594 252.789062 44.773438 250.453125 C 45.238281 248.117188 45.761719 245.792969 46.339844 243.484375 C 46.917969 241.171875 47.554688 238.878906 48.246094 236.597656 C 48.9375 234.320312 49.683594 232.058594 50.484375 229.816406 C 51.289062 227.574219 52.144531 225.351562 53.054688 223.152344 C 53.96875 220.953125 54.933594 218.777344 55.949219 216.625 C 56.96875 214.46875 58.039062 212.34375 59.164062 210.242188 C 60.285156 208.144531 61.457031 206.070312 62.683594 204.027344 C 63.90625 201.984375 65.179688 199.972656 66.503906 197.992188 C 67.828125 196.015625 69.199219 194.066406 70.617188 192.15625 C 72.035156 190.242188 73.5 188.363281 75.011719 186.523438 C 76.523438 184.683594 78.078125 182.878906 79.675781 181.113281 C 81.277344 179.351562 82.917969 177.625 84.601562 175.941406 C 86.285156 174.257812 88.011719 172.617188 89.773438 171.015625 C 91.539062 169.417969 93.34375 167.863281 95.183594 166.351562 C 97.023438 164.839844 98.902344 163.375 100.8125 161.957031 C 102.726562 160.539062 104.671875 159.167969 106.652344 157.84375 C 108.632812 156.519531 110.644531 155.246094 112.6875 154.023438 C 114.730469 152.796875 116.800781 151.625 118.902344 150.503906 C 121.003906 149.378906 123.128906 148.308594 125.28125 147.292969 C 127.4375 146.273438 129.613281 145.308594 131.8125 144.398438 C 134.011719 143.484375 136.234375 142.628906 138.476562 141.824219 C 140.71875 141.023438 142.980469 140.277344 145.257812 139.585938 C 147.539062 138.894531 149.832031 138.257812 152.144531 137.679688 C 154.453125 137.101562 156.777344 136.582031 159.113281 136.117188 C 161.449219 135.652344 163.792969 135.242188 166.148438 134.894531 C 168.503906 134.546875 170.867188 134.253906 173.238281 134.019531 C 175.609375 133.785156 177.984375 133.613281 180.363281 133.496094 C 182.738281 133.378906 185.121094 133.320312 187.5 133.320312 Z M 187.5 144.78125 C 185.308594 144.78125 183.117188 144.835938 180.925781 144.945312 C 178.734375 145.050781 176.546875 145.214844 174.363281 145.429688 C 172.179688 145.644531 170 145.914062 167.832031 146.234375 C 165.660156 146.554688 163.5 146.929688 161.347656 147.359375 C 159.195312 147.785156 157.058594 148.265625 154.929688 148.800781 C 152.800781 149.332031 150.6875 149.917969 148.585938 150.554688 C 146.488281 151.191406 144.40625 151.878906 142.339844 152.621094 C 140.273438 153.359375 138.226562 154.148438 136.199219 154.988281 C 134.171875 155.828125 132.167969 156.714844 130.183594 157.652344 C 128.203125 158.59375 126.242188 159.578125 124.308594 160.613281 C 122.371094 161.648438 120.464844 162.726562 118.582031 163.855469 C 116.699219 164.984375 114.847656 166.15625 113.023438 167.375 C 111.199219 168.59375 109.40625 169.859375 107.644531 171.164062 C 105.882812 172.472656 104.152344 173.820312 102.457031 175.210938 C 100.761719 176.605469 99.101562 178.039062 97.472656 179.511719 C 95.847656 180.984375 94.261719 182.496094 92.707031 184.046875 C 91.15625 185.597656 89.644531 187.1875 88.171875 188.8125 C 86.699219 190.4375 85.265625 192.101562 83.875 193.796875 C 82.480469 195.492188 81.132812 197.21875 79.824219 198.984375 C 78.519531 200.746094 77.253906 202.539062 76.035156 204.363281 C 74.816406 206.1875 73.644531 208.039062 72.515625 209.921875 C 71.386719 211.804688 70.308594 213.710938 69.273438 215.648438 C 68.238281 217.582031 67.253906 219.539062 66.316406 221.523438 C 65.375 223.507812 64.488281 225.511719 63.648438 227.539062 C 62.808594 229.566406 62.019531 231.613281 61.28125 233.679688 C 60.542969 235.742188 59.851562 237.828125 59.214844 239.925781 C 58.578125 242.027344 57.996094 244.140625 57.460938 246.269531 C 56.929688 248.394531 56.449219 250.535156 56.019531 252.6875 C 55.59375 254.839844 55.21875 257 54.894531 259.171875 C 54.574219 261.339844 54.304688 263.519531 54.089844 265.699219 C 53.875 267.882812 53.714844 270.070312 53.605469 272.261719 C 53.496094 274.453125 53.445312 276.648438 53.445312 278.839844 C 53.445312 281.035156 53.496094 283.226562 53.605469 285.417969 C 53.714844 287.609375 53.875 289.796875 54.089844 291.980469 C 54.304688 294.164062 54.574219 296.339844 54.894531 298.511719 C 55.21875 300.683594 55.589844 302.84375 56.019531 304.996094 C 56.449219 307.144531 56.929688 309.285156 57.460938 311.414062 C 57.996094 313.542969 58.578125 315.65625 59.214844 317.757812 C 59.851562 319.855469 60.542969 321.9375 61.28125 324.003906 C 62.019531 326.070312 62.808594 328.117188 63.648438 330.144531 C 64.488281 332.167969 65.375 334.175781 66.316406 336.160156 C 67.253906 338.140625 68.238281 340.101562 69.273438 342.035156 C 70.308594 343.96875 71.386719 345.878906 72.515625 347.761719 C 73.644531 349.640625 74.816406 351.496094 76.035156 353.320312 C 77.253906 355.144531 78.519531 356.9375 79.824219 358.699219 C 81.132812 360.460938 82.480469 362.191406 83.875 363.886719 C 85.265625 365.582031 86.699219 367.242188 88.171875 368.867188 C 89.644531 370.496094 91.15625 372.082031 92.707031 373.632812 C 94.261719 375.1875 95.847656 376.699219 97.472656 378.171875 C 99.101562 379.644531 100.761719 381.078125 102.457031 382.46875 C 104.152344 383.859375 105.882812 385.210938 107.644531 386.515625 C 109.40625 387.824219 111.199219 389.085938 113.023438 390.304688 C 114.847656 391.523438 116.699219 392.699219 118.582031 393.828125 C 120.464844 394.953125 122.371094 396.035156 124.308594 397.070312 C 126.242188 398.105469 128.203125 399.089844 130.183594 400.027344 C 132.167969 400.964844 134.171875 401.855469 136.199219 402.695312 C 138.226562 403.535156 140.273438 404.324219 142.339844 405.0625 C 144.40625 405.800781 146.488281 406.488281 148.585938 407.125 C 150.6875 407.761719 152.800781 408.347656 154.929688 408.882812 C 157.058594 409.414062 159.195312 409.894531 161.347656 410.324219 C 163.5 410.75 165.660156 411.125 167.832031 411.449219 C 170 411.769531 172.179688 412.039062 174.363281 412.253906 C 176.546875 412.46875 178.734375 412.628906 180.925781 412.738281 C 183.117188 412.84375 185.308594 412.898438 187.5 412.898438 C 189.695312 412.898438 191.886719 412.84375 194.078125 412.738281 C 196.269531 412.628906 198.457031 412.46875 200.640625 412.253906 C 202.824219 412.039062 205.003906 411.769531 207.171875 411.449219 C 209.34375 411.125 211.503906 410.75 213.65625 410.324219 C 215.808594 409.894531 217.945312 409.414062 220.074219 408.882812 C 222.203125 408.347656 224.316406 407.761719 226.417969 407.125 C 228.515625 406.488281 230.597656 405.800781 232.664062 405.0625 C 234.730469 404.324219 236.777344 403.535156 238.804688 402.695312 C 240.832031 401.855469 242.835938 400.964844 244.820312 400.027344 C 246.800781 399.089844 248.761719 398.105469 250.695312 397.070312 C 252.632812 396.035156 254.539062 394.953125 256.421875 393.828125 C 258.304688 392.699219 260.15625 391.523438 261.980469 390.304688 C 263.804688 389.085938 265.597656 387.824219 267.359375 386.515625 C 269.121094 385.210938 270.851562 383.859375 272.546875 382.46875 C 274.242188 381.078125 275.902344 379.644531 277.53125 378.171875 C 279.15625 376.699219 280.742188 375.1875 282.296875 373.632812 C 283.847656 372.082031 285.359375 370.496094 286.832031 368.867188 C 288.304688 367.242188 289.738281 365.582031 291.128906 363.886719 C 292.523438 362.191406 293.871094 360.460938 295.179688 358.699219 C 296.484375 356.9375 297.75 355.144531 298.96875 353.320312 C 300.1875 351.496094 301.359375 349.640625 302.488281 347.761719 C 303.613281 345.878906 304.695312 343.96875 305.730469 342.035156 C 306.765625 340.101562 307.75 338.140625 308.6875 336.160156 C 309.628906 334.175781 310.515625 332.167969 311.355469 330.144531 C 312.195312 328.117188 312.984375 326.070312 313.722656 324.003906 C 314.460938 321.9375 315.152344 319.855469 315.789062 317.757812 C 316.425781 315.65625 317.007812 313.542969 317.542969 311.414062 C 318.074219 309.285156 318.554688 307.144531 318.984375 304.996094 C 319.410156 302.84375 319.785156 300.683594 320.109375 298.511719 C 320.429688 296.339844 320.699219 294.164062 320.914062 291.980469 C 321.128906 289.796875 321.289062 287.609375 321.398438 285.417969 C 321.507812 283.226562 321.558594 281.035156 321.558594 278.839844 C 321.558594 276.648438 321.507812 274.453125 321.398438 272.261719 C 321.289062 270.070312 321.128906 267.882812 320.914062 265.699219 C 320.699219 263.519531 320.429688 261.339844 320.109375 259.171875 C 319.785156 257 319.410156 254.839844 318.984375 252.6875 C 318.554688 250.535156 318.074219 248.394531 317.542969 246.269531 C 317.007812 244.140625 316.425781 242.027344 315.789062 239.925781 C 315.152344 237.828125 314.460938 235.742188 313.722656 233.679688 C 312.984375 231.613281 312.195312 229.566406 311.355469 227.539062 C 310.515625 225.511719 309.628906 223.507812 308.6875 221.523438 C 307.75 219.539062 306.765625 217.582031 305.730469 215.648438 C 304.695312 213.710938 303.613281 211.804688 302.488281 209.921875 C 301.359375 208.039062 300.1875 206.1875 298.96875 204.363281 C 297.75 202.539062 296.484375 200.746094 295.179688 198.984375 C 293.871094 197.21875 292.523438 195.492188 291.128906 193.796875 C 289.738281 192.101562 288.304688 190.4375 286.832031 188.8125 C 285.359375 187.1875 283.847656 185.597656 282.296875 184.046875 C 280.742188 182.496094 279.15625 180.984375 277.53125 179.511719 C 275.902344 178.039062 274.242188 176.605469 272.546875 175.210938 C 270.851562 173.820312 269.121094 172.472656 267.359375 171.164062 C 265.597656 169.859375 263.804688 168.59375 261.980469 167.375 C 260.15625 166.15625 258.304688 164.984375 256.421875 163.855469 C 254.539062 162.726562 252.632812 161.648438 250.695312 160.613281 C 248.761719 159.578125 246.800781 158.59375 244.820312 157.652344 C 242.835938 156.714844 240.832031 155.828125 238.804688 154.988281 C 236.777344 154.148438 234.730469 153.359375 232.664062 152.621094 C 230.597656 151.878906 228.515625 151.191406 226.417969 150.554688 C 224.316406 149.917969 222.203125 149.332031 220.074219 148.800781 C 217.945312 148.265625 215.808594 147.785156 213.65625 147.359375 C 211.503906 146.929688 209.34375 146.554688 207.171875 146.234375 C 205.003906 145.914062 202.824219 145.644531 200.640625 145.429688 C 198.457031 145.214844 196.269531 145.050781 194.078125 144.945312 C 191.886719 144.835938 189.695312 144.78125 187.5 144.78125 Z M 187.5 157.773438 C 189.484375 157.773438 191.464844 157.824219 193.441406 157.921875 C 195.421875 158.019531 197.398438 158.164062 199.367188 158.359375 C 201.339844 158.550781 203.304688 158.792969 205.265625 159.085938 C 207.226562 159.375 209.175781 159.714844 211.121094 160.101562 C 213.0625 160.488281 214.996094 160.921875 216.917969 161.402344 C 218.839844 161.882812 220.75 162.414062 222.644531 162.988281 C 224.542969 163.5625 226.421875 164.183594 228.289062 164.851562 C 230.152344 165.519531 232 166.234375 233.832031 166.992188 C 235.664062 167.75 237.472656 168.550781 239.265625 169.398438 C 241.054688 170.246094 242.824219 171.136719 244.574219 172.070312 C 246.320312 173.003906 248.042969 173.980469 249.742188 175 C 251.441406 176.019531 253.117188 177.078125 254.761719 178.179688 C 256.410156 179.277344 258.03125 180.417969 259.621094 181.601562 C 261.210938 182.78125 262.773438 184 264.304688 185.257812 C 265.835938 186.511719 267.335938 187.808594 268.804688 189.136719 C 270.273438 190.46875 271.707031 191.832031 273.109375 193.234375 C 274.511719 194.636719 275.875 196.070312 277.207031 197.539062 C 278.539062 199.007812 279.832031 200.507812 281.085938 202.039062 C 282.34375 203.570312 283.5625 205.132812 284.742188 206.722656 C 285.925781 208.3125 287.066406 209.933594 288.164062 211.582031 C 289.265625 213.226562 290.324219 214.902344 291.34375 216.601562 C 292.363281 218.300781 293.339844 220.023438 294.273438 221.769531 C 295.207031 223.519531 296.097656 225.289062 296.945312 227.078125 C 297.792969 228.871094 298.59375 230.679688 299.351562 232.511719 C 300.113281 234.34375 300.824219 236.191406 301.492188 238.054688 C 302.160156 239.921875 302.78125 241.800781 303.355469 243.699219 C 303.929688 245.59375 304.460938 247.503906 304.941406 249.425781 C 305.421875 251.347656 305.855469 253.28125 306.242188 255.222656 C 306.628906 257.167969 306.96875 259.117188 307.257812 261.078125 C 307.550781 263.039062 307.792969 265.003906 307.984375 266.976562 C 308.179688 268.945312 308.324219 270.921875 308.421875 272.902344 C 308.519531 274.878906 308.570312 276.859375 308.570312 278.84375 C 308.570312 280.824219 308.519531 282.804688 308.421875 284.78125 C 308.324219 286.761719 308.179688 288.738281 307.984375 290.707031 C 307.792969 292.679688 307.550781 294.644531 307.257812 296.605469 C 306.96875 298.566406 306.628906 300.515625 306.242188 302.460938 C 305.855469 304.402344 305.421875 306.335938 304.941406 308.257812 C 304.460938 310.179688 303.929688 312.089844 303.355469 313.984375 C 302.78125 315.882812 302.160156 317.761719 301.492188 319.628906 C 300.824219 321.492188 300.113281 323.339844 299.351562 325.171875 C 298.59375 327.003906 297.792969 328.8125 296.945312 330.605469 C 296.097656 332.394531 295.207031 334.164062 294.273438 335.914062 C 293.339844 337.660156 292.363281 339.382812 291.34375 341.082031 C 290.324219 342.78125 289.265625 344.457031 288.164062 346.101562 C 287.066406 347.75 285.925781 349.371094 284.742188 350.960938 C 283.5625 352.554688 282.34375 354.113281 281.089844 355.644531 C 279.832031 357.175781 278.539062 358.675781 277.207031 360.144531 C 275.875 361.613281 274.511719 363.046875 273.109375 364.449219 C 271.707031 365.851562 270.273438 367.214844 268.804688 368.546875 C 267.335938 369.878906 265.835938 371.171875 264.304688 372.429688 C 262.773438 373.683594 261.210938 374.902344 259.621094 376.082031 C 258.03125 377.265625 256.410156 378.40625 254.761719 379.503906 C 253.117188 380.605469 251.441406 381.664062 249.742188 382.683594 C 248.042969 383.703125 246.320312 384.679688 244.574219 385.613281 C 242.824219 386.546875 241.054688 387.4375 239.265625 388.285156 C 237.472656 389.132812 235.664062 389.933594 233.832031 390.691406 C 232 391.453125 230.152344 392.164062 228.289062 392.832031 C 226.421875 393.5 224.542969 394.121094 222.644531 394.695312 C 220.75 395.269531 218.839844 395.800781 216.917969 396.28125 C 214.996094 396.761719 213.0625 397.195312 211.121094 397.582031 C 209.175781 397.96875 207.226562 398.308594 205.265625 398.597656 C 203.304688 398.890625 201.339844 399.132812 199.367188 399.324219 C 197.398438 399.519531 195.421875 399.664062 193.441406 399.761719 C 191.464844 399.859375 189.484375 399.910156 187.503906 399.910156 C 185.519531 399.910156 183.539062 399.859375 181.5625 399.761719 C 179.582031 399.664062 177.605469 399.519531 175.636719 399.324219 C 173.664062 399.132812 171.699219 398.890625 169.738281 398.597656 C 167.777344 398.308594 165.828125 397.96875 163.882812 397.582031 C 161.941406 397.195312 160.007812 396.761719 158.085938 396.28125 C 156.164062 395.800781 154.253906 395.269531 152.359375 394.695312 C 150.460938 394.121094 148.582031 393.5 146.714844 392.832031 C 144.851562 392.164062 143.003906 391.453125 141.171875 390.691406 C 139.339844 389.933594 137.53125 389.132812 135.738281 388.285156 C 133.949219 387.4375 132.179688 386.546875 130.429688 385.613281 C 128.683594 384.679688 126.960938 383.703125 125.261719 382.683594 C 123.5625 381.664062 121.886719 380.605469 120.242188 379.503906 C 118.59375 378.40625 116.972656 377.265625 115.382812 376.082031 C 113.792969 374.902344 112.230469 373.683594 110.699219 372.429688 C 109.167969 371.171875 107.667969 369.878906 106.199219 368.546875 C 104.730469 367.214844 103.296875 365.851562 101.894531 364.449219 C 100.492188 363.046875 99.128906 361.613281 97.796875 360.144531 C 96.464844 358.675781 95.171875 357.175781 93.914062 355.644531 C 92.660156 354.113281 91.441406 352.554688 90.261719 350.960938 C 89.078125 349.371094 87.9375 347.75 86.839844 346.101562 C 85.738281 344.457031 84.679688 342.78125 83.660156 341.082031 C 82.640625 339.382812 81.664062 337.660156 80.730469 335.914062 C 79.796875 334.164062 78.90625 332.394531 78.058594 330.605469 C 77.210938 328.8125 76.410156 327.003906 75.652344 325.171875 C 74.890625 323.339844 74.179688 321.492188 73.511719 319.628906 C 72.84375 317.761719 72.222656 315.882812 71.648438 313.984375 C 71.074219 312.089844 70.542969 310.179688 70.0625 308.257812 C 69.582031 306.335938 69.148438 304.402344 68.761719 302.460938 C 68.375 300.515625 68.035156 298.566406 67.746094 296.605469 C 67.453125 294.644531 67.210938 292.679688 67.019531 290.707031 C 66.824219 288.738281 66.679688 286.761719 66.582031 284.78125 C 66.484375 282.804688 66.433594 280.824219 66.433594 278.84375 C 66.433594 276.859375 66.484375 274.878906 66.582031 272.902344 C 66.679688 270.921875 66.824219 268.945312 67.019531 266.976562 C 67.210938 265.003906 67.453125 263.039062 67.746094 261.078125 C 68.035156 259.117188 68.375 257.167969 68.761719 255.222656 C 69.148438 253.28125 69.582031 251.347656 70.0625 249.425781 C 70.542969 247.503906 71.074219 245.59375 71.648438 243.699219 C 72.222656 241.800781 72.84375 239.921875 73.511719 238.054688 C 74.179688 236.191406 74.890625 234.34375 75.652344 232.511719 C 76.410156 230.679688 77.210938 228.871094 78.058594 227.078125 C 78.90625 225.289062 79.796875 223.519531 80.730469 221.769531 C 81.664062 220.023438 82.640625 218.300781 83.660156 216.601562 C 84.679688 214.902344 85.738281 213.226562 86.839844 211.582031 C 87.9375 209.933594 89.078125 208.3125 90.261719 206.722656 C 91.441406 205.132812 92.660156 203.570312 93.914062 202.039062 C 95.171875 200.507812 96.464844 199.007812 97.796875 197.539062 C 99.128906 196.070312 100.492188 194.636719 101.894531 193.234375 C 103.296875 191.832031 104.730469 190.46875 106.199219 189.136719 C 107.667969 187.808594 109.167969 186.511719 110.699219 185.257812 C 112.230469 184 113.792969 182.78125 115.382812 181.601562 C 116.972656 180.417969 118.59375 179.277344 120.242188 178.179688 C 121.886719 177.078125 123.5625 176.019531 125.261719 175 C 126.960938 173.980469 128.683594 173.003906 130.429688 172.070312 C 132.179688 171.136719 133.949219 170.246094 135.738281 169.398438 C 137.53125 168.550781 139.339844 167.75 141.171875 166.992188 C 143.003906 166.234375 144.851562 165.519531 146.714844 164.851562 C 148.582031 164.183594 150.460938 163.5625 152.359375 162.988281 C 154.253906 162.414062 156.164062 161.882812 158.085938 161.402344 C 160.007812 160.921875 161.941406 160.488281 163.882812 160.101562 C 165.828125 159.714844 167.777344 159.375 169.738281 159.085938 C 171.699219 158.792969 173.664062 158.550781 175.636719 158.359375 C 177.605469 158.164062 179.582031 158.019531 181.5625 157.921875 C 183.539062 157.824219 185.519531 157.773438 187.503906 157.773438 Z M 187.5 239.550781 C 186.214844 239.550781 184.929688 239.613281 183.652344 239.738281 C 182.371094 239.867188 181.097656 240.054688 179.835938 240.304688 C 178.574219 240.554688 177.328125 240.867188 176.097656 241.242188 C 174.863281 241.617188 173.65625 242.046875 172.464844 242.539062 C 171.277344 243.035156 170.113281 243.582031 168.980469 244.191406 C 167.84375 244.796875 166.742188 245.457031 165.671875 246.171875 C 164.601562 246.886719 163.570312 247.652344 162.574219 248.46875 C 161.582031 249.285156 160.628906 250.148438 159.71875 251.058594 C 158.808594 251.96875 157.945312 252.921875 157.128906 253.914062 C 156.3125 254.910156 155.546875 255.941406 154.832031 257.011719 C 154.117188 258.082031 153.457031 259.183594 152.847656 260.320312 C 152.242188 261.453125 151.695312 262.617188 151.199219 263.804688 C 150.707031 264.996094 150.277344 266.203125 149.902344 267.4375 C 149.527344 268.667969 149.214844 269.914062 148.964844 271.175781 C 148.714844 272.4375 148.523438 273.710938 148.398438 274.992188 C 148.273438 276.269531 148.210938 277.554688 148.210938 278.84375 C 148.210938 280.128906 148.273438 281.414062 148.398438 282.691406 C 148.523438 283.972656 148.714844 285.246094 148.964844 286.507812 C 149.214844 287.769531 149.527344 289.015625 149.902344 290.246094 C 150.277344 291.480469 150.707031 292.6875 151.199219 293.878906 C 151.695312 295.066406 152.242188 296.230469 152.847656 297.363281 C 153.457031 298.5 154.117188 299.601562 154.832031 300.671875 C 155.546875 301.742188 156.3125 302.773438 157.128906 303.769531 C 157.945312 304.761719 158.808594 305.714844 159.71875 306.625 C 160.628906 307.535156 161.582031 308.398438 162.574219 309.214844 C 163.570312 310.03125 164.601562 310.796875 165.671875 311.511719 C 166.742188 312.226562 167.84375 312.886719 168.980469 313.496094 C 170.113281 314.101562 171.277344 314.652344 172.464844 315.144531 C 173.65625 315.636719 174.863281 316.066406 176.097656 316.441406 C 177.328125 316.816406 178.574219 317.128906 179.835938 317.378906 C 181.097656 317.628906 182.371094 317.820312 183.652344 317.945312 C 184.929688 318.070312 186.214844 318.132812 187.5 318.132812 C 188.789062 318.132812 190.074219 318.070312 191.351562 317.945312 C 192.632812 317.820312 193.90625 317.628906 195.167969 317.378906 C 196.429688 317.128906 197.675781 316.816406 198.90625 316.441406 C 200.140625 316.066406 201.347656 315.636719 202.539062 315.144531 C 203.726562 314.652344 204.890625 314.101562 206.023438 313.496094 C 207.160156 312.886719 208.261719 312.226562 209.332031 311.511719 C 210.402344 310.796875 211.433594 310.03125 212.429688 309.214844 C 213.421875 308.398438 214.375 307.535156 215.285156 306.625 C 216.195312 305.714844 217.058594 304.761719 217.875 303.769531 C 218.691406 302.773438 219.457031 301.742188 220.171875 300.671875 C 220.886719 299.601562 221.546875 298.5 222.15625 297.363281 C 222.761719 296.230469 223.308594 295.066406 223.804688 293.878906 C 224.296875 292.6875 224.726562 291.480469 225.101562 290.246094 C 225.476562 289.015625 225.789062 287.769531 226.039062 286.507812 C 226.289062 285.246094 226.480469 283.972656 226.605469 282.691406 C 226.730469 281.414062 226.792969 280.128906 226.792969 278.84375 C 226.792969 277.554688 226.730469 276.269531 226.605469 274.992188 C 226.480469 273.710938 226.289062 272.4375 226.039062 271.175781 C 225.789062 269.914062 225.476562 268.667969 225.101562 267.4375 C 224.726562 266.203125 224.296875 264.996094 223.804688 263.804688 C 223.308594 262.617188 222.761719 261.453125 222.15625 260.320312 C 221.546875 259.183594 220.886719 258.082031 220.171875 257.011719 C 219.457031 255.941406 218.691406 254.910156 217.875 253.914062 C 217.058594 252.921875 216.195312 251.96875 215.285156 251.058594 C 214.375 250.148438 213.421875 249.285156 212.429688 248.46875 C 211.433594 247.652344 210.402344 246.886719 209.332031 246.171875 C 208.261719 245.457031 207.160156 244.796875 206.023438 244.191406 C 204.890625 243.582031 203.726562 243.035156 202.539062 242.539062 C 201.347656 242.046875 200.140625 241.617188 198.90625 241.242188 C 197.675781 240.867188 196.429688 240.554688 195.167969 240.304688 C 193.90625 240.054688 192.632812 239.867188 191.351562 239.738281 C 190.074219 239.613281 188.789062 239.550781 187.503906 239.550781 Z M 187.5 242.644531 C 188.6875 242.644531 189.871094 242.703125 191.050781 242.820312 C 192.230469 242.933594 193.402344 243.109375 194.5625 243.339844 C 195.726562 243.570312 196.875 243.859375 198.007812 244.203125 C 199.144531 244.546875 200.257812 244.945312 201.355469 245.398438 C 202.449219 245.855469 203.519531 246.359375 204.566406 246.917969 C 205.609375 247.476562 206.625 248.085938 207.613281 248.746094 C 208.597656 249.402344 209.546875 250.109375 210.464844 250.859375 C 211.382812 251.613281 212.257812 252.410156 213.097656 253.246094 C 213.933594 254.085938 214.730469 254.960938 215.480469 255.878906 C 216.234375 256.796875 216.941406 257.746094 217.597656 258.730469 C 218.257812 259.71875 218.867188 260.734375 219.425781 261.777344 C 219.984375 262.824219 220.488281 263.894531 220.941406 264.988281 C 221.398438 266.085938 221.796875 267.199219 222.140625 268.335938 C 222.484375 269.46875 222.773438 270.617188 223.003906 271.78125 C 223.234375 272.941406 223.40625 274.113281 223.523438 275.292969 C 223.640625 276.472656 223.699219 277.65625 223.699219 278.839844 C 223.699219 280.027344 223.640625 281.210938 223.523438 282.390625 C 223.40625 283.570312 223.234375 284.742188 223.003906 285.902344 C 222.773438 287.066406 222.484375 288.214844 222.140625 289.347656 C 221.796875 290.484375 221.398438 291.597656 220.941406 292.691406 C 220.488281 293.789062 219.984375 294.859375 219.425781 295.90625 C 218.867188 296.949219 218.257812 297.964844 217.597656 298.953125 C 216.941406 299.9375 216.234375 300.886719 215.480469 301.804688 C 214.730469 302.722656 213.933594 303.597656 213.097656 304.4375 C 212.257812 305.273438 211.382812 306.070312 210.464844 306.820312 C 209.546875 307.574219 208.597656 308.277344 207.613281 308.9375 C 206.625 309.597656 205.609375 310.207031 204.566406 310.765625 C 203.519531 311.324219 202.449219 311.828125 201.355469 312.28125 C 200.257812 312.738281 199.144531 313.136719 198.007812 313.480469 C 196.875 313.824219 195.726562 314.109375 194.5625 314.34375 C 193.402344 314.574219 192.230469 314.746094 191.050781 314.863281 C 189.871094 314.980469 188.6875 315.039062 187.5 315.039062 C 186.316406 315.039062 185.132812 314.980469 183.953125 314.863281 C 182.773438 314.746094 181.601562 314.574219 180.441406 314.34375 C 179.277344 314.109375 178.128906 313.824219 176.996094 313.480469 C 175.859375 313.136719 174.746094 312.738281 173.648438 312.28125 C 172.554688 311.828125 171.484375 311.324219 170.4375 310.765625 C 169.394531 310.207031 168.378906 309.597656 167.390625 308.9375 C 166.40625 308.277344 165.457031 307.574219 164.539062 306.820312 C 163.621094 306.070312 162.746094 305.273438 161.90625 304.4375 C 161.070312 303.597656 160.273438 302.722656 159.523438 301.804688 C 158.769531 300.886719 158.0625 299.9375 157.40625 298.953125 C 156.746094 297.964844 156.136719 296.949219 155.578125 295.90625 C 155.019531 294.859375 154.515625 293.789062 154.0625 292.691406 C 153.605469 291.597656 153.207031 290.484375 152.863281 289.347656 C 152.519531 288.214844 152.230469 287.066406 152 285.902344 C 151.769531 284.742188 151.597656 283.570312 151.480469 282.390625 C 151.363281 281.210938 151.304688 280.027344 151.304688 278.839844 C 151.304688 277.65625 151.363281 276.472656 151.480469 275.292969 C 151.597656 274.113281 151.769531 272.941406 152 271.78125 C 152.230469 270.617188 152.519531 269.46875 152.863281 268.335938 C 153.207031 267.199219 153.605469 266.085938 154.0625 264.988281 C 154.515625 263.894531 155.019531 262.824219 155.578125 261.777344 C 156.136719 260.734375 156.746094 259.71875 157.40625 258.730469 C 158.0625 257.746094 158.769531 256.796875 159.523438 255.878906 C 160.273438 254.960938 161.070312 254.085938 161.90625 253.246094 C 162.746094 252.410156 163.621094 251.613281 164.539062 250.859375 C 165.457031 250.109375 166.40625 249.402344 167.390625 248.746094 C 168.378906 248.085938 169.394531 247.476562 170.4375 246.917969 C 171.484375 246.359375 172.554688 245.855469 173.648438 245.398438 C 174.746094 244.945312 175.859375 244.546875 176.996094 244.203125 C 178.128906 243.859375 179.277344 243.570312 180.441406 243.339844 C 181.601562 243.109375 182.773438 242.933594 183.953125 242.820312 C 185.132812 242.703125 186.316406 242.644531 187.5 242.644531 Z M 187.5 246.152344 C 186.429688 246.152344 185.363281 246.207031 184.296875 246.308594 C 183.234375 246.414062 182.175781 246.570312 181.125 246.78125 C 180.074219 246.988281 179.039062 247.25 178.011719 247.5625 C 176.988281 247.871094 175.980469 248.230469 174.992188 248.640625 C 174.003906 249.050781 173.035156 249.507812 172.09375 250.011719 C 171.148438 250.515625 170.230469 251.066406 169.339844 251.660156 C 168.449219 252.257812 167.59375 252.894531 166.765625 253.574219 C 165.9375 254.253906 165.144531 254.96875 164.386719 255.726562 C 163.628906 256.484375 162.914062 257.277344 162.234375 258.105469 C 161.554688 258.933594 160.917969 259.789062 160.320312 260.679688 C 159.726562 261.570312 159.175781 262.488281 158.671875 263.433594 C 158.167969 264.375 157.710938 265.34375 157.300781 266.332031 C 156.890625 267.320312 156.53125 268.328125 156.21875 269.351562 C 155.910156 270.378906 155.648438 271.414062 155.441406 272.464844 C 155.230469 273.515625 155.074219 274.574219 154.96875 275.636719 C 154.867188 276.703125 154.8125 277.769531 154.8125 278.84375 C 154.8125 279.914062 154.867188 280.980469 154.96875 282.046875 C 155.074219 283.113281 155.230469 284.167969 155.441406 285.21875 C 155.648438 286.269531 155.910156 287.304688 156.21875 288.332031 C 156.53125 289.355469 156.890625 290.363281 157.300781 291.351562 C 157.710938 292.339844 158.167969 293.308594 158.671875 294.25 C 159.175781 295.195312 159.726562 296.113281 160.320312 297.003906 C 160.917969 297.894531 161.554688 298.75 162.234375 299.578125 C 162.914062 300.40625 163.628906 301.199219 164.386719 301.957031 C 165.144531 302.714844 165.9375 303.429688 166.765625 304.109375 C 167.59375 304.789062 168.449219 305.425781 169.339844 306.023438 C 170.230469 306.617188 171.148438 307.167969 172.09375 307.671875 C 173.035156 308.175781 174.003906 308.632812 174.992188 309.042969 C 175.980469 309.453125 176.988281 309.8125 178.011719 310.125 C 179.039062 310.433594 180.074219 310.695312 181.125 310.902344 C 182.175781 311.113281 183.234375 311.269531 184.296875 311.375 C 185.363281 311.476562 186.429688 311.53125 187.5 311.53125 C 188.574219 311.53125 189.640625 311.476562 190.707031 311.375 C 191.769531 311.269531 192.828125 311.113281 193.878906 310.902344 C 194.929688 310.695312 195.964844 310.433594 196.992188 310.125 C 198.015625 309.8125 199.023438 309.453125 200.011719 309.042969 C 201 308.632812 201.96875 308.175781 202.910156 307.671875 C 203.855469 307.167969 204.773438 306.617188 205.664062 306.023438 C 206.554688 305.425781 207.410156 304.789062 208.238281 304.109375 C 209.066406 303.429688 209.859375 302.714844 210.617188 301.957031 C 211.375 301.199219 212.089844 300.40625 212.769531 299.578125 C 213.449219 298.75 214.085938 297.894531 214.683594 297.003906 C 215.277344 296.113281 215.828125 295.195312 216.332031 294.25 C 216.835938 293.308594 217.292969 292.339844 217.703125 291.351562 C 218.113281 290.363281 218.472656 289.355469 218.785156 288.332031 C 219.09375 287.304688 219.355469 286.269531 219.5625 285.21875 C 219.773438 284.167969 219.929688 283.113281 220.035156 282.046875 C 220.136719 280.980469 220.191406 279.914062 220.191406 278.84375 C 220.191406 277.769531 220.136719 276.703125 220.035156 275.636719 C 219.929688 274.574219 219.773438 273.515625 219.5625 272.464844 C 219.355469 271.414062 219.09375 270.378906 218.785156 269.351562 C 218.472656 268.328125 218.113281 267.320312 217.703125 266.332031 C 217.292969 265.34375 216.835938 264.375 216.332031 263.433594 C 215.828125 262.488281 215.277344 261.570312 214.683594 260.679688 C 214.085938 259.789062 213.449219 258.933594 212.769531 258.105469 C 212.089844 257.277344 211.375 256.484375 210.617188 255.726562 C 209.859375 254.96875 209.066406 254.253906 208.238281 253.574219 C 207.410156 252.894531 206.554688 252.257812 205.664062 251.660156 C 204.773438 251.066406 203.855469 250.515625 202.910156 250.011719 C 201.96875 249.507812 201 249.050781 200.011719 248.640625 C 199.023438 248.230469 198.015625 247.871094 196.992188 247.5625 C 195.964844 247.25 194.929688 246.988281 193.878906 246.78125 C 192.828125 246.570312 191.769531 246.414062 190.707031 246.308594 C 189.640625 246.207031 188.574219 246.152344 187.5 246.152344 Z M 187.5 246.152344 " fill-opacity="1" fill-rule="evenodd"/></g><path fill="#603911" d="M 193.273438 221.796875 C 193.273438 222.191406 193.234375 222.582031 193.160156 222.96875 C 193.082031 223.359375 192.96875 223.734375 192.816406 224.101562 C 192.664062 224.464844 192.480469 224.8125 192.257812 225.140625 C 192.039062 225.46875 191.789062 225.773438 191.511719 226.054688 C 191.230469 226.332031 190.925781 226.582031 190.597656 226.804688 C 190.269531 227.023438 189.921875 227.207031 189.554688 227.359375 C 189.191406 227.511719 188.816406 227.625 188.425781 227.703125 C 188.039062 227.78125 187.648438 227.816406 187.25 227.816406 C 186.855469 227.816406 186.464844 227.78125 186.078125 227.703125 C 185.6875 227.625 185.3125 227.511719 184.945312 227.359375 C 184.582031 227.207031 184.234375 227.023438 183.90625 226.804688 C 183.578125 226.582031 183.273438 226.332031 182.992188 226.054688 C 182.714844 225.773438 182.464844 225.46875 182.242188 225.140625 C 182.023438 224.8125 181.839844 224.464844 181.6875 224.101562 C 181.535156 223.734375 181.421875 223.359375 181.34375 222.96875 C 181.265625 222.582031 181.230469 222.191406 181.230469 221.796875 C 181.230469 221.398438 181.265625 221.007812 181.34375 220.621094 C 181.421875 220.230469 181.535156 219.855469 181.6875 219.488281 C 181.839844 219.125 182.023438 218.777344 182.242188 218.449219 C 182.464844 218.121094 182.714844 217.816406 182.992188 217.535156 C 183.273438 217.257812 183.578125 217.007812 183.90625 216.785156 C 184.234375 216.566406 184.582031 216.382812 184.945312 216.230469 C 185.3125 216.078125 185.6875 215.964844 186.078125 215.886719 C 186.464844 215.8125 186.855469 215.773438 187.25 215.773438 C 187.648438 215.773438 188.039062 215.8125 188.425781 215.886719 C 188.816406 215.964844 189.191406 216.078125 189.554688 216.230469 C 189.921875 216.382812 190.269531 216.566406 190.597656 216.789062 C 190.925781 217.007812 191.230469 217.257812 191.511719 217.535156 C 191.789062 217.816406 192.039062 218.121094 192.257812 218.449219 C 192.480469 218.777344 192.664062 219.125 192.816406 219.488281 C 192.96875 219.855469 193.082031 220.230469 193.160156 220.621094 C 193.234375 221.007812 193.273438 221.398438 193.273438 221.796875 Z M 193.273438 221.796875 " fill-opacity="1" fill-rule="evenodd"/></svg>